{"title":"The Hunger Games Catching Fire 2013 IMAX EDITION 1080p BrRip x26","uid":9509624,"size":4864771310,"categoryP":"video","categoryS":"hd___movies","magnet":"?xt=urn:btih:c5eba86580161e13cf8f9575449804e5fe7d08a6&amp;dn=The+Hunger+Games+Catching+Fire+2013+IMAX+EDITION+1080p+BrRip+x26&amp;tr=udp%3A%2F%2Ftracker.openbittorrent.com%3A80&amp;tr=udp%3A%2F%2Fopen.demonii.com%3A1337&amp;tr=udp%3A%2F%2Ftracker.coppersurfer.tk%3A6969&amp;tr=udp%3A%2F%2Fexodus.desync.com%3A6969","seeders":1,"leechers":0,"uploader":"shawnmurthy","files":-1,"time":1390378813,"description":"Get all Pimp4003 newest releases first at \n\nWWW.PIMP4003.NET with VIP downloads speed\n\nRegister here and you can chat, request movies, view upcoming uploads and much more\n\nUPLOAD UNLIMITED IMAGES AND UP TO 10MB IN FILE SIZES FOR FREE....\n &lt;a href=&quot;\nhttp://www.piczhub.com&quot; rel=&quot;nofollow&quot; target=&quot;_NEW&quot;&gt;\nhttp://www.piczhub.com&lt;/a&gt;\n\n\nPIMP4003 AND PIMPRG PRESENTS\n\nThe Hunger Games Catching Fire 2013 IMAX EDITION 1080p BrRip x264 6CH Pimp4003\n &lt;a href=&quot;\nhttp://www.imdb.com/title/tt1951264/&quot; rel=&quot;nofollow&quot; target=&quot;_NEW&quot;&gt;\nhttp://www.imdb.com/title/tt1951264/&lt;/a&gt;\n\nKatniss Everdeen and Peeta Mellark become targets of the Capitol after their victory in the 74th Hunger Games sparks a rebellion in the Districts of Panem.\n\nDirector: Francis Lawrence\nWriters: Simon Beaufoy (screenplay), Michael Arndt (screenplay), 1 more credit Â»\nStars: Jennifer Lawrence, Josh Hutcherson, Liam Hemsworth | See full cast and crew Â»\n\nGenre: Action | Drama\nFile Size: 4.53GB\nSource: EVIL-DEAD\nLanguage: ENGLISH\nSUBS: N/A\n\nVideo\nID                                       : 2\nFormat                                   : AVC\nFormat/Info                              : Advanced Video Codec\nFormat profile                           : &lt;a class=&quot;__cf_email__&quot; href=&quot;/cdn-cgi/l/email-protection&quot; data-cfemail=&quot;62200311070e0b0c07222e574c52&quot;&gt;[email&amp;#160;protected]&lt;/a&gt;&lt;script cf-hash='f9e31' type=&quot;text/javascript&quot;&gt;\n/* &lt;![CDATA[ */!function(){try{var t=&quot;currentScript&quot;in document?document.currentScript:function(){for(var t=document.getElementsByTagName(&quot;script&quot;),e=t.length;e--;)if(t[e].getAttribute(&quot;cf-hash&quot;))return t[e]}();if(t&amp;&amp;t.previousSibling){var e,r,n,i,c=t.previousSibling,a=c.getAttribute(&quot;data-cfemail&quot;);if(a){for(e=&quot;&quot;,r=parseInt(a.substr(0,2),16),n=2;a.length-n;n+=2)i=parseInt(a.substr(n,2),16)^r,e+=String.fromCharCode(i);e=document.createTextNode(e),c.parentNode.replaceChild(e,c)}}}catch(u){}}();/* ]]&gt; */&lt;/script&gt;\nFormat settings, CABAC                   : No\nFormat settings, ReFrames                : 1 frame\nMuxing mode                              : Container profile=&lt;a class=&quot;__cf_email__&quot; href=&quot;/cdn-cgi/l/email-protection&quot; data-cfemail=&quot;ca88abb9afa6a3a4af8afee4fb&quot;&gt;[email&amp;#160;protected]&lt;/a&gt;&lt;script cf-hash='f9e31' type=&quot;text/javascript&quot;&gt;\n/* &lt;![CDATA[ */!function(){try{var t=&quot;currentScript&quot;in document?document.currentScript:function(){for(var t=document.getElementsByTagName(&quot;script&quot;),e=t.length;e--;)if(t[e].getAttribute(&quot;cf-hash&quot;))return t[e]}();if(t&amp;&amp;t.previousSibling){var e,r,n,i,c=t.previousSibling,a=c.getAttribute(&quot;data-cfemail&quot;);if(a){for(e=&quot;&quot;,r=parseInt(a.substr(0,2),16),n=2;a.length-n;n+=2)i=parseInt(a.substr(n,2),16)^r,e+=String.fromCharCode(i);e=document.createTextNode(e),c.parentNode.replaceChild(e,c)}}}catch(u){}}();/* ]]&gt; */&lt;/script&gt;\nCodec ID                                 : avc1\nCodec ID/Info                            : Advanced Video Coding\nDuration                                 : 2h 26mn\nBit rate                                 : 4 237 Kbps\nWidth                                    : 1 920 pixels\nHeight                                   : 1 080 pixels\nDisplay aspect ratio                     : 16:9\nFrame rate mode                          : Constant\nFrame rate                               : 23.976 fps\nOriginal frame rate                      : 23.000 fps\nColor space                              : YUV\nChroma subsampling                       : 4:2:0\nBit depth                                : 8 bits\nScan type                                : Progressive\nBits/(Pixel*Frame)                       : 0.085\nStream size                              : 4.33 GiB (96%)\nWriting library                          : ointer\nLanguage                                 : English\n\nAudio\nID                                       : 1\nFormat                                   : AAC\nFormat/Info                              : Advanced Audio Codec\nFormat profile                           : LC\nCodec ID                                 : 40\nDuration                                 : 2h 26mn\nBit rate mode                            : Constant\nBit rate                                 : 192 Kbps\nChannel(s)                               : 6 channels\nChannel positions                        : Front: L C R, Side: L R, LFE\nSampling rate                            : 48.0 KHz\nCompression mode                         : Lossy\nStream size                              : 201 MiB (4%)\nLanguage                                 : English\n\n\nALWAYS ON SEED BOX\n\nGREETZ TO PIMPRG AND ALL OTHER GROUPS\n\nPimp4003 | SUJAIDR | PIMPRG | JUNAIDZIA | RICKYKT | LOKKIODDIN | SCENEDL | Ali1997 | AND ALL OTHER P2P AND SCENE GROUPS\n &lt;a href=&quot;\nhttp://someimage.com/zDTYci2&quot; rel=&quot;nofollow&quot; target=&quot;_NEW&quot;&gt;\nhttp://someimage.com/zDTYci2&lt;/a&gt; &lt;a href=&quot;\nhttp://someimage.com/pdZUU4u&quot; rel=&quot;nofollow&quot; target=&quot;_NEW&quot;&gt;\nhttp://someimage.com/pdZUU4u&lt;/a&gt; &lt;a href=&quot;\nhttp://someimage.com/ToqwCVn&quot; rel=&quot;nofollow&quot; target=&quot;_NEW&quot;&gt;\nhttp://someimage.com/ToqwCVn&lt;/a&gt; &lt;a href=&quot;\nhttp://someimage.com/lptvd5X&quot; rel=&quot;nofollow&quot; target=&quot;_NEW&quot;&gt;\nhttp://someimage.com/lptvd5X&lt;/a&gt; &lt;a href=&quot;\nhttp://someimage.com/q8UPBED&quot; rel=&quot;nofollow&quot; target=&quot;_NEW&quot;&gt;\nhttp://someimage.com/q8UPBED&lt;/a&gt; &lt;a href=&quot;\nhttp://someimage.com/EMwTQmD&quot; rel=&quot;nofollow&quot; target=&quot;_NEW&quot;&gt;\nhttp://someimage.com/EMwTQmD&lt;/a&gt;\n","torrent":{"xt":"urn:btih:c5eba86580161e13cf8f9575449804e5fe7d08a6","amp;dn":"The+Hunger+Games+Catching+Fire+2013+IMAX+EDITION+1080p+BrRip+x26","amp;tr":["udp%3A%2F%2Ftracker.openbittorrent.com%3A80","udp%3A%2F%2Fopen.demonii.com%3A1337","udp%3A%2F%2Ftracker.coppersurfer.tk%3A6969","udp%3A%2F%2Fexodus.desync.com%3A6969"],"infoHash":"c5eba86580161e13cf8f9575449804e5fe7d08a6","infoHashBuffer":{"type":"Buffer","data":[197,235,168,101,128,22,30,19,207,143,149,117,68,152,4,229,254,125,8,166]},"announce":[],"urlList":[]}}